<svg xmlns="http://www.w3.org/2000/svg" xmlns:xlink="http://www.w3.org/1999/xlink" viewBox="0,0,256,256" width="24px" height="24px" fill-rule="nonzero"><g fill="#d00a0a" fill-rule="nonzero" stroke="none" stroke-width="1" stroke-linecap="butt" stroke-linejoin="miter" stroke-miterlimit="10" stroke-dasharray="" stroke-dashoffset="0" font-family="none" font-weight="none" font-size="none" text-anchor="none" style="mix-blend-mode: normal"><g transform="scale(10.66667,10.66667)"><path d="M12,2c-3.859,0 -7,3.14 -7,7c0,5 7,13.01172 7,13.01172c0,0 7,-8.01172 7,-13.01172c0,-3.86 -3.141,-7 -7,-7zM12,4c2.757,0 5,2.243 5,5c0,2.757 -2.243,5 -5,5c-2.757,0 -5,-2.243 -5,-5c0,-2.757 2.243,-5 5,-5zM12,6c-1.657,0 -3,1.343 -3,3c0,1.657 1.343,3 3,3c1.657,0 3,-1.343 3,-3c0,-0.305 -0.05858,-0.59314 -0.14258,-0.86914c-0.239,0.512 -0.75542,0.86914 -1.35742,0.86914c-0.828,0 -1.5,-0.672 -1.5,-1.5c0,-0.602 0.35714,-1.11842 0.86914,-1.35742c-0.276,-0.084 -0.56414,-0.14258 -0.86914,-0.14258z"></path></g></g></svg>