<svg xmlns="http://www.w3.org/2000/svg" xmlns:xlink="http://www.w3.org/1999/xlink" viewBox="0,0,256,256" width="50px" height="50px" fill-rule="nonzero"><g fill="#b71111" fill-rule="nonzero" stroke="none" stroke-width="1" stroke-linecap="butt" stroke-linejoin="miter" stroke-miterlimit="10" stroke-dasharray="" stroke-dashoffset="0" font-family="none" font-weight="none" font-size="none" text-anchor="none" style="mix-blend-mode: normal"><g transform="scale(5.12,5.12)"><path d="M9,4.5c-2.481,0 -4.5,2.019 -4.5,4.5v32c0,2.481 2.019,4.5 4.5,4.5h32c2.481,0 4.5,-2.019 4.5,-4.5v-32c0,-2.481 -2.019,-4.5 -4.5,-4.5zM36.22852,20.75781l-0.23242,1.72656h1.26367c-0.04,0.176 -0.19242,1.16084 -0.23242,1.46484h-1.23047l-0.28125,2.03906c-0.072,0.528 -0.03187,0.71289 0.32813,0.71289c0.272,0 0.6643,-0.1593 0.9043,-0.2793l-0.2168,1.31836c-0.328,0.176 -0.9423,0.43359 -1.6543,0.43359c-1.208,0 -1.45763,-0.64958 -1.26562,-2.01758l0.3125,-2.20703h-0.59961l0.16797,-1.43164l0.64844,-0.0332l0.24805,-1.03906zM30.69922,22.21484c1.18024,-0.01827 1.98566,0.46044 2.09766,1.39844c0.031,0.287 0.03805,0.59128 -0.00195,0.86328c-0.192,1.328 -0.31137,2.327 -0.35937,3c-0.008,0.104 -0.008,0.28111 0,0.53711h-1.81641c0.04,-0.104 0.07152,-0.24783 0.10352,-0.42383c0.024,-0.12 0.03283,-0.26522 0.04883,-0.44922c-0.376,0.528 -0.90436,0.84773 -1.56836,0.92773c-0.944,0.12 -1.56795,-0.25533 -1.75195,-1.11133c-0.12,-0.536 0.04812,-1.14372 0.32813,-1.51172c0.384,-0.48 0.99977,-0.78486 1.75977,-0.88086c0.608,-0.072 1.11961,-0.03936 1.59961,0.05664l0.02344,-0.08008c0.016,-0.128 0.02577,-0.26383 0.00977,-0.42383c-0.048,-0.4 -0.36834,-0.64873 -1.15234,-0.55273c-0.528,0.064 -1.03964,0.25666 -1.43164,0.47266l-0.38477,-1.15234c0.528,-0.304 1.20075,-0.53486 1.96875,-0.63086c0.183,-0.023 0.35874,-0.03645 0.52734,-0.03906zM40.26172,22.31445c1.592,0 2.37695,1.07184 2.37695,2.46484c-0.001,1.873 -1.33003,3.43359 -3.08203,3.43359c-1.576,0 -2.375,-1.07166 -2.375,-2.47266c0,-1.864 1.33508,-3.42578 3.08008,-3.42578zM23.04297,22.37109c1.048,0 1.11823,0.83252 0.99023,1.72852c0.584,-1.08 1.40973,-1.72852 2.17773,-1.72852c1.056,0 1.12623,0.85659 0.99023,1.80859l-0.6543,3.78516h-1.82422l0.47852,-3.3457c0.04,-0.328 0.04916,-0.57422 -0.21484,-0.57422c-0.456,0 -1.05541,0.88686 -1.19141,1.63086l-0.16797,1.15234c-0.056,0.408 -0.12091,0.86434 -0.12891,1.15234h-2c0.112,-0.48 0.2165,-1.24048 0.3125,-1.89648l0.19141,-1.29687c0.072,-0.48 0.08041,-0.73437 -0.18359,-0.73437c-0.456,0 -1.05541,0.88686 -1.19141,1.63086l-0.16992,1.15234c-0.048,0.408 -0.12676,0.86434 -0.13477,1.15234h-1.97656c0.112,-0.48 0.2165,-1.24048 0.3125,-1.89648l0.24805,-1.67187c0.096,-0.632 0.12752,-1.30441 0.10352,-1.81641c0.744,-0.016 1.27286,-0.07178 1.88086,-0.17578c0.048,0.176 0.07973,1.01595 -0.07227,1.75195c0.584,-1.128 1.44061,-1.80859 2.22461,-1.80859zM15.91211,22.38867c1.576,0 2.35352,1.05583 2.35352,2.42383c-0.001,1.849 -1.30502,3.39258 -3.04102,3.39258c-1.552,0 -2.35351,-1.05545 -2.35351,-2.43945c0,-1.84 1.32002,-3.37695 3.04102,-3.37695zM12.90234,22.51563l-0.0332,1.01563l-2.64844,2.88086c1.104,0 1.80898,-0.00725 2.20899,-0.03125c-0.118,0.544 -0.21455,0.99206 -0.31055,1.66406c-0.528,-0.048 -1.35941,-0.05664 -2.19141,-0.05664c-0.928,0 -1.73577,0.00864 -2.38477,0.05664l0.02344,-1.02344l2.64844,-2.86523c-1.16,0 -1.58445,0.00744 -2.06445,0.02344c0.104,-0.512 0.18386,-1.08044 0.25586,-1.64844c0.848,0.016 1.18348,0.0332 2.27148,0.0332c1.016,0 1.58461,-0.01683 2.22461,-0.04883zM15.71289,23.86719c-0.512,0 -0.92969,0.81603 -0.92969,1.83203c0,0.68 0.22537,1.02539 0.60938,1.02539c0.512,0 0.91211,-0.82403 0.91211,-1.83203c0,-0.688 -0.2238,-1.02539 -0.5918,-1.02539zM40.02148,23.86719c-0.512,0 -0.92773,0.81603 -0.92773,1.83203c0,0.68 0.22342,1.02539 0.60742,1.02539c0.512,0 0.91211,-0.82403 0.91211,-1.83203c0,-0.688 -0.2238,-1.02539 -0.5918,-1.02539zM30.52539,25.42773c-0.19,-0.014 -0.39375,-0.01423 -0.59375,0.00977c-0.384,0.048 -0.70505,0.20745 -0.87305,0.43945c-0.128,0.168 -0.19197,0.36761 -0.16797,0.59961c0.04,0.352 0.43267,0.62436 0.88867,0.56836c0.672,-0.08 1.12823,-0.72719 1.24023,-1.36719l0.01563,-0.17578c-0.144,-0.032 -0.31977,-0.06022 -0.50977,-0.07422z"></path></g></g></svg>